<svg width="25" height="24" viewBox="0 0 25 24" fill="none" xmlns="http://www.w3.org/2000/svg">
<g id="fluent:location-16-filled">
<path id="Vector" d="M14.234 21.816C16.8485 19.515 21.5 14.814 21.5 10.5C21.5 8.11305 20.5518 5.82387 18.864 4.13604C17.1761 2.44821 14.8869 1.5 12.5 1.5C10.1131 1.5 7.82387 2.44821 6.13604 4.13604C4.44821 5.82387 3.5 8.11305 3.5 10.5C3.5 14.814 8.15 19.515 10.766 21.816C11.2432 22.2419 11.8604 22.4773 12.5 22.4773C13.1396 22.4773 13.7568 22.2419 14.234 21.816ZM9.5 10.5C9.5 9.70435 9.81607 8.94129 10.3787 8.37868C10.9413 7.81607 11.7044 7.5 12.5 7.5C13.2956 7.5 14.0587 7.81607 14.6213 8.37868C15.1839 8.94129 15.5 9.70435 15.5 10.5C15.5 11.2956 15.1839 12.0587 14.6213 12.6213C14.0587 13.1839 13.2956 13.5 12.5 13.5C11.7044 13.5 10.9413 13.1839 10.3787 12.6213C9.81607 12.0587 9.5 11.2956 9.5 10.5Z" fill="white"/>
</g>
</svg>
