<svg width="25" height="24" viewBox="0 0 25 24" fill="none" xmlns="http://www.w3.org/2000/svg">
<g id="fluent:mail-24-filled">
<path id="Vector" d="M22.5 8.608V16.75C22.5001 17.5801 22.1824 18.3788 21.6123 18.9822C21.0422 19.5856 20.2628 19.948 19.434 19.995L19.25 20H5.75C4.91986 20.0001 4.12117 19.6824 3.51777 19.1123C2.91437 18.5422 2.552 17.7628 2.505 16.934L2.5 16.75V8.608L12.152 13.664C12.2594 13.7202 12.3788 13.7496 12.5 13.7496C12.6212 13.7496 12.7406 13.7202 12.848 13.664L22.5 8.608ZM5.75 4H19.25C20.0556 3.9999 20.8325 4.299 21.43 4.83927C22.0276 5.37954 22.4032 6.12248 22.484 6.924L12.5 12.154L2.516 6.924C2.59352 6.15431 2.94305 5.43752 3.50175 4.90246C4.06045 4.36741 4.79168 4.04919 5.564 4.005L5.75 4Z" fill="white"/>
</g>
</svg>
